<svg width="140" height="24" viewBox="0 0 140 24" fill="none" xmlns="http://www.w3.org/2000/svg">
<path d="M0 0V24H61.8279V17.8064H9.87097V15H61.1183V8.70968H9.87097V6.12903H61.6021V0H0Z" fill="#1400FF"/>
<path d="M68.6918 20.4268C68.4078 20.4268 68.2816 20.2065 68.2816 19.7659V3.93429C68.2816 3.52512 68.4078 3.33628 68.6918 3.33628C69.0389 3.33628 69.102 3.5566 69.102 3.93429V10.0088H73.0146V3.80839C73.0146 1.51077 71.8156 0 69.0389 0H68.3763C65.3787 0 64.1797 1.79404 64.1797 4.24903V19.4826C64.1797 22.2523 65.3787 23.8575 68.4078 23.8575H69.0389C71.8471 23.8575 73.0146 21.9691 73.0146 19.8603V12.9359H69.102V19.7659C69.102 20.1436 69.0389 20.4268 68.6918 20.4268Z" fill="#1B2475"/>
<path d="M76.075 23.6372H80.0191V3.80839H81.8177V0.220321H74.2765V3.80839H76.075V23.6372Z" fill="#1B2475"/>
<path d="M86.6381 15.9889H85.6915L86.1648 7.08172L86.6381 15.9889ZM87.0483 23.6372H90.9294L88.8153 0.220321H83.7668L81.8105 23.6372H85.2498L85.4707 19.4196H86.8275L87.0483 23.6372Z" fill="#1B2475"/>
<path d="M97.8782 13.9431C99.4243 13.9431 100.686 12.9359 100.686 10.8272V3.27333C100.686 1.1016 99.4874 0.220321 97.8151 0.220321H92.0093V23.6372H95.985V13.9431H97.8782ZM95.985 3.24185H96.269C96.6792 3.24185 96.7423 3.46217 96.7423 3.83987V10.1662C96.7423 10.5754 96.5845 10.7642 96.269 10.7642H95.985V3.24185Z" fill="#1B2475"/>
<path d="M111.258 4.62672C111.258 1.82551 109.996 0 106.998 0H106.367C103.37 0 102.108 1.73109 102.108 4.62672V19.3252C102.108 22.2209 103.591 23.8575 106.367 23.8575H107.03C109.649 23.8575 111.258 22.2523 111.258 19.3252V4.62672ZM107.156 19.6714C107.156 20.0806 106.998 20.3009 106.683 20.3009C106.399 20.3009 106.241 20.0806 106.241 19.6714V4.18608C106.241 3.71397 106.399 3.49365 106.683 3.49365C106.998 3.49365 107.156 3.71397 107.156 4.18608V19.6714Z" fill="#1B2475"/>
<path d="M117.211 20.4268C116.927 20.4268 116.801 20.2065 116.801 19.7659V3.93429C116.801 3.52512 116.927 3.33628 117.211 3.33628C117.558 3.33628 117.621 3.5566 117.621 3.93429V10.0088H121.534V3.80839C121.534 1.51077 120.335 0 117.558 0H116.895C113.898 0 112.699 1.79404 112.699 4.24903V19.4826C112.699 22.2523 113.898 23.8575 116.927 23.8575H117.558C120.366 23.8575 121.534 21.9691 121.534 19.8603V12.9359H117.621V19.7659C117.621 20.1436 117.558 20.4268 117.211 20.4268Z" fill="#1B2475"/>
<path d="M124.594 23.6372H128.538V3.80839H130.337V0.220321H122.796V3.80839H124.594V23.6372Z" fill="#1B2475"/>
<path d="M135.157 15.9889H134.211L134.684 7.08172L135.157 15.9889ZM135.567 23.6372H139.449L137.334 0.220321H132.286L130.33 23.6372H133.769L133.99 19.4196H135.347L135.567 23.6372Z" fill="#1B2475"/>
</svg>
